<svg width="17" height="12" viewBox="0 0 17 12" fill="none" xmlns="http://www.w3.org/2000/svg">
<path d="M11.8 9.94286C11.8 9.09699 11.572 8.30865 11.1823 7.62838C11.2717 7.61536 11.3624 7.60819 11.4542 7.60725C11.8478 7.73363 12.2811 7.82143 12.75 7.82143C13.219 7.82143 13.6523 7.73362 14.0458 7.60724C15.2604 7.61849 16.25 8.61448 16.25 9.85714C16.25 10.1587 16.0088 10.3929 15.725 10.3929H11.8V9.94286ZM7.325 3C7.325 4.24975 6.3241 5.25 5.1 5.25C3.8759 5.25 2.875 4.24975 2.875 3C2.875 1.75025 3.8759 0.75 5.1 0.75C6.3241 0.75 7.325 1.75025 7.325 3ZM5.1 8.03571C5.81404 8.03571 6.48281 7.87438 7.08488 7.60714H7.14C8.40926 7.60714 9.45 8.64757 9.45 9.94286V10.7143C9.45 11.0158 9.20879 11.25 8.925 11.25H1.275C0.991212 11.25 0.75 11.0158 0.75 10.7143V9.94286C0.75 8.64757 1.79074 7.60714 3.06 7.60714H3.11568C3.71845 7.87394 4.38498 8.03571 5.1 8.03571ZM14.55 3.42857C14.55 4.43993 13.7377 5.25 12.75 5.25C11.7623 5.25 10.95 4.43993 10.95 3.42857C10.95 2.41721 11.7623 1.60714 12.75 1.60714C13.7377 1.60714 14.55 2.41721 14.55 3.42857Z" fill="#31572C" stroke="white" stroke-width="1.5"/>
</svg>
