<svg width="11" height="13" viewBox="0 0 11 13" fill="none" xmlns="http://www.w3.org/2000/svg">
<path d="M11 9.75C10.312 9.75 10.2325 8.9375 9.17076 8.9375C8.1044 8.9375 8.02104 9.75 7.33538 9.75C6.65537 9.75 6.56307 8.9375 5.5 8.9375C4.44808 8.9375 4.34063 9.75 3.67076 9.75C2.97962 9.75 2.90464 8.9375 1.83538 8.9375C0.766145 8.9375 0.689882 9.75 0 9.75V7.71875C0 7.0459 0.527902 6.5 1.17857 6.5H1.57143V2.84375H3.14286V6.5H4.71429V2.84375H6.28571V6.5H7.85714V2.84375H9.42857V6.5H9.82143C10.4721 6.5 11 7.0459 11 7.71875V9.75ZM11 13H0V10.5625C1.06454 10.5625 1.1483 9.75 1.83538 9.75C2.52168 9.75 2.60275 10.5625 3.67076 10.5625C4.72271 10.5625 4.8301 9.75 5.5 9.75C6.19113 9.75 6.2661 10.5625 7.33538 10.5625C8.39995 10.5625 8.48368 9.75 9.17076 9.75C9.84569 9.75 9.93811 10.5625 11 10.5625V13ZM2.35714 2.4375C1.92132 2.4375 1.57143 2.07568 1.57143 1.625C1.57143 0.837891 2.35714 1.04102 2.35714 0C2.65179 0 3.14286 0.749023 3.14286 1.42188C3.14286 2.09473 2.79297 2.4375 2.35714 2.4375ZM5.5 2.4375C5.06417 2.4375 4.71429 2.07568 4.71429 1.625C4.71429 0.837891 5.5 1.04102 5.5 0C5.79464 0 6.28571 0.749023 6.28571 1.42188C6.28571 2.09473 5.93583 2.4375 5.5 2.4375ZM8.64286 2.4375C8.20703 2.4375 7.85714 2.07568 7.85714 1.625C7.85714 0.837891 8.64286 1.04102 8.64286 0C8.9375 0 9.42857 0.749023 9.42857 1.42188C9.42857 2.09473 9.07868 2.4375 8.64286 2.4375Z" fill="#4D4D4F"/>
</svg>

