<svg width="16" height="18" viewBox="0 0 16 18" fill="none" xmlns="http://www.w3.org/2000/svg">
<path d="M16 13.5C14.9993 13.5 14.8836 12.375 13.3393 12.375C11.7882 12.375 11.667 13.5 10.6696 13.5C9.68054 13.5 9.54629 12.375 8 12.375C6.46993 12.375 6.31364 13.5 5.33929 13.5C4.334 13.5 4.22493 12.375 2.66964 12.375C1.11439 12.375 1.00346 13.5 0 13.5V10.6875C0 9.75586 0.767857 9 1.71429 9H2.28571V3.9375H4.57143V9H6.85714V3.9375H9.14286V9H11.4286V3.9375H13.7143V9H14.2857C15.2321 9 16 9.75586 16 10.6875V13.5ZM16 18H0V14.625C1.54843 14.625 1.67025 13.5 2.66964 13.5C3.66789 13.5 3.78582 14.625 5.33929 14.625C6.86939 14.625 7.02561 13.5 8 13.5C9.00529 13.5 9.11432 14.625 10.6696 14.625C12.2181 14.625 12.3399 13.5 13.3393 13.5C14.321 13.5 14.4554 14.625 16 14.625V18ZM3.42857 3.375C2.79464 3.375 2.28571 2.87402 2.28571 2.25C2.28571 1.16016 3.42857 1.44141 3.42857 0C3.85714 0 4.57143 1.03711 4.57143 1.96875C4.57143 2.90039 4.0625 3.375 3.42857 3.375ZM8 3.375C7.36607 3.375 6.85714 2.87402 6.85714 2.25C6.85714 1.16016 8 1.44141 8 0C8.42857 0 9.14286 1.03711 9.14286 1.96875C9.14286 2.90039 8.63393 3.375 8 3.375ZM12.5714 3.375C11.9375 3.375 11.4286 2.87402 11.4286 2.25C11.4286 1.16016 12.5714 1.44141 12.5714 0C13 0 13.7143 1.03711 13.7143 1.96875C13.7143 2.90039 13.2054 3.375 12.5714 3.375Z" fill="black"/>
</svg>
