<svg width="39" height="30" viewBox="0 0 39 30" fill="none" xmlns="http://www.w3.org/2000/svg">
<path d="M32.9339 3.51878C27.7251 0.166915 20.802 -0.596042 15.0509 0.41486C15.0509 0.41486 7.79998 1.17269 4.14442 5.63159C-1.03968 12.0259 1.07114 17.9233 4.14442 20.9811C4.94811 24.5677 0 28.6628 0 28.6628C1.39276 29.4646 8.58337 32.2362 15.0509 26.2229C20.7891 27.2272 27.7123 26.4708 32.9339 23.113C41.0088 18.0921 41.0352 8.56604 32.9339 3.51878ZM19.9184 23.0807C17.9047 23.0863 15.8989 22.8342 13.9526 22.3309L12.614 23.5898C11.8705 24.2921 11.038 24.899 10.1366 25.3959C9.04301 25.9322 7.85499 26.2618 6.6354 26.3673C6.70311 26.2499 6.76269 26.1325 6.82295 26.0217C8.16222 23.6038 8.52333 21.4345 7.90628 19.5139C5.70374 17.8251 4.38546 15.6668 4.38546 13.3067C4.38546 7.89936 11.3418 3.51878 19.9184 3.51878C28.495 3.51878 35.4513 7.89936 35.4513 13.3067C35.4513 18.714 28.495 23.0807 19.9184 23.0807ZM12.4664 15.6344C11.8515 15.6429 11.2582 15.4136 10.8165 14.9968C10.3749 14.58 10.1209 14.0097 10.1102 13.4109C10.0628 10.4177 14.7028 10.3524 14.7496 13.339V13.3726C14.7524 13.6673 14.6956 13.9596 14.5824 14.2328C14.4691 14.5061 14.3017 14.7549 14.0897 14.9651C13.8776 15.1753 13.6251 15.3427 13.3466 15.4578C13.0681 15.5729 12.769 15.632 12.4664 15.6344ZM17.4613 13.4109C17.4078 10.4177 22.0478 10.3458 22.1013 13.3324V13.3726C22.1277 16.3453 17.5148 16.3776 17.4613 13.4109ZM27.1693 15.6344C26.5543 15.6429 25.9609 15.4136 25.5191 14.9969C25.0774 14.5801 24.8232 14.0098 24.8123 13.4109C24.7656 10.4177 29.4057 10.3524 29.4524 13.339V13.3726C29.4562 13.6675 29.4001 13.9603 29.2872 14.2339C29.1744 14.5076 29.007 14.7568 28.7947 14.9672C28.5825 15.1776 28.3296 15.345 28.0506 15.4597C27.7716 15.5745 27.4721 15.633 27.1693 15.6344Z" fill="#31572C"/>
</svg>
