<svg width="12" height="14" viewBox="0 0 12 14" fill="none" xmlns="http://www.w3.org/2000/svg">
<path d="M9.17857 1.72835V1.97835H9.42857H10.7143C11.2841 1.97835 11.75 2.44511 11.75 3.02462V4.07088H0.25V3.02462C0.25 2.44511 0.715886 1.97835 1.28571 1.97835H2.57143H2.82143V1.72835V0.432088C2.82143 0.330581 2.90428 0.25 3 0.25H3.85714C3.95286 0.25 4.03571 0.330581 4.03571 0.432088V1.72835V1.97835H4.28571H7.71429H7.96429V1.72835V0.432088C7.96429 0.330581 8.04714 0.25 8.14286 0.25H9C9.09572 0.25 9.17857 0.330581 9.17857 0.432088V1.72835ZM1.28571 13.5768C0.715886 13.5768 0.25 13.1101 0.25 12.5306V5.43506H11.75V12.5306C11.75 13.1101 11.2841 13.5768 10.7143 13.5768H1.28571ZM8.89286 6.66341C8.57608 6.66341 8.32143 6.9231 8.32143 7.23748V8.3177C8.32143 8.63208 8.57608 8.89176 8.89286 8.89176H9.96429C10.2811 8.89176 10.5357 8.63208 10.5357 8.3177V7.23748C10.5357 6.9231 10.2811 6.66341 9.96429 6.66341H8.89286ZM8.89286 10.1201C8.57608 10.1201 8.32143 10.3798 8.32143 10.6942V11.7744C8.32143 12.0888 8.57608 12.3485 8.89286 12.3485H9.96429C10.2811 12.3485 10.5357 12.0888 10.5357 11.7744V10.6942C10.5357 10.3798 10.2811 10.1201 9.96429 10.1201H8.89286ZM5.46429 6.66341C5.14751 6.66341 4.89286 6.9231 4.89286 7.23748V8.3177C4.89286 8.63208 5.14751 8.89176 5.46429 8.89176H6.53571C6.85249 8.89176 7.10714 8.63208 7.10714 8.3177V7.23748C7.10714 6.9231 6.85249 6.66341 6.53571 6.66341H5.46429ZM5.46429 10.1201C5.14751 10.1201 4.89286 10.3798 4.89286 10.6942V11.7744C4.89286 12.0888 5.14751 12.3485 5.46429 12.3485H6.53571C6.85249 12.3485 7.10714 12.0888 7.10714 11.7744V10.6942C7.10714 10.3798 6.85249 10.1201 6.53571 10.1201H5.46429ZM2.03571 6.66341C1.71894 6.66341 1.46429 6.9231 1.46429 7.23748V8.3177C1.46429 8.63208 1.71893 8.89176 2.03571 8.89176H3.10714C3.42392 8.89176 3.67857 8.63208 3.67857 8.3177V7.23748C3.67857 6.9231 3.42392 6.66341 3.10714 6.66341H2.03571ZM2.03571 10.1201C1.71893 10.1201 1.46429 10.3798 1.46429 10.6942V11.7744C1.46429 12.0888 1.71893 12.3485 2.03571 12.3485H3.10714C3.42392 12.3485 3.67857 12.0888 3.67857 11.7744V10.6942C3.67857 10.3798 3.42392 10.1201 3.10714 10.1201H2.03571Z" stroke="#31572C" stroke-width="0.5"/>
</svg>
