<svg width="36" height="32" viewBox="0 0 36 32" fill="none" xmlns="http://www.w3.org/2000/svg">
<mask id="path-1-inside-1_1444_356" fill="white">
<path fill-rule="evenodd" clip-rule="evenodd" d="M18.2147 31.2315L18.2148 31.2316L28.4251 21.0195L32.7976 16.6464C36.4584 12.985 36.4579 7.04929 32.7965 3.38853C29.1352 -0.272227 23.1993 -0.271747 19.5386 3.3896L18.213 4.71537L16.8871 3.38969C13.2257 -0.271177 7.28983 -0.270698 3.62901 3.39076C-0.0318217 7.05222 -0.0313446 12.9881 3.63007 16.649L4.95579 17.9745L4.9556 17.9747L18.2147 31.2315L18.2147 31.2315Z"/>
</mask>
<path d="M18.2148 31.2316L16.5886 32.858L18.2151 34.4843L19.8413 32.8578L18.2148 31.2316ZM18.2147 31.2315L19.8409 29.605L18.2145 27.9788L16.5883 29.6052L18.2147 31.2315ZM28.4251 21.0195L26.7987 19.3933L26.7987 19.3933L28.4251 21.0195ZM32.7976 16.6464L31.1711 15.0201L32.7976 16.6464ZM32.7965 3.38853L31.1703 5.01501L32.7965 3.38853ZM19.5386 3.3896L17.9121 1.76337L17.9121 1.76337L19.5386 3.3896ZM18.213 4.71537L16.5868 6.34183L18.2132 7.96806L19.8394 6.34159L18.213 4.71537ZM16.8871 3.38969L18.5133 1.76323L18.5133 1.76323L16.8871 3.38969ZM3.62901 3.39076L5.25549 5.01697L3.62901 3.39076ZM3.63007 16.649L2.00385 18.2755L3.63007 16.649ZM4.95579 17.9745L6.58223 19.6008L8.20852 17.9743L6.58202 16.3481L4.95579 17.9745ZM4.9556 17.9747L3.32916 16.3485L1.70286 17.975L3.32939 19.6012L4.9556 17.9747ZM18.2147 31.2315L16.5884 32.858L18.2149 34.4841L19.8411 32.8578L18.2147 31.2315ZM19.841 29.6051L19.8409 29.605L16.5885 32.8579L16.5886 32.858L19.841 29.6051ZM26.7987 19.3933L16.5883 29.6054L19.8413 32.8578L30.0516 22.6457L26.7987 19.3933ZM31.1711 15.0201L26.7987 19.3933L30.0516 22.6457L34.4241 18.2726L31.1711 15.0201ZM31.1703 5.01501C33.9334 7.77764 33.9338 12.2571 31.1711 15.0201L34.4241 18.2726C38.983 13.713 38.9824 6.32094 34.4228 1.76204L31.1703 5.01501ZM21.165 5.01582C23.9277 2.25274 28.4072 2.25238 31.1703 5.01501L34.4228 1.76204C29.8631 -2.79683 22.471 -2.79624 17.9121 1.76337L21.165 5.01582ZM19.8394 6.34159L21.165 5.01582L17.9121 1.76337L16.5865 3.08915L19.8394 6.34159ZM15.2609 5.01616L16.5868 6.34183L19.8392 3.0889L18.5133 1.76323L15.2609 5.01616ZM5.25549 5.01697C8.01818 2.2538 12.4977 2.25344 15.2609 5.01616L18.5133 1.76323C13.9536 -2.79579 6.56148 -2.79519 2.00252 1.76455L5.25549 5.01697ZM5.2563 15.0225C2.49315 12.2598 2.49279 7.78015 5.25549 5.01697L2.00252 1.76455C-2.55643 6.32429 -2.55583 13.7165 2.00385 18.2755L5.2563 15.0225ZM6.58202 16.3481L5.2563 15.0225L2.00385 18.2755L3.32957 19.601L6.58202 16.3481ZM6.58204 19.601L6.58223 19.6008L3.32936 16.3483L3.32916 16.3485L6.58204 19.601ZM19.8409 29.605L6.58181 16.3482L3.32939 19.6012L16.5884 32.858L19.8409 29.605ZM16.5883 29.6052L16.5882 29.6053L19.8411 32.8578L19.8411 32.8577L16.5883 29.6052Z" fill="#31572C" mask="url(#path-1-inside-1_1444_356)"/>
</svg>
