<svg width="14" height="12" viewBox="0 0 14 12" fill="none" xmlns="http://www.w3.org/2000/svg">
<path d="M8.07202 1.71228C9.20489 0.567228 10.9942 0.423065 12.16 1.3959C13.5367 2.54695 13.61 4.61409 12.3759 5.86172L12.3757 5.86187L7.08495 11.2134C7.08491 11.2135 7.08487 11.2135 7.08484 11.2135C7.03663 11.2621 6.96108 11.2622 6.91286 11.2136C6.91281 11.2135 6.91277 11.2135 6.91272 11.2134L1.62226 5.8622C1.62217 5.8621 1.62207 5.862 1.62198 5.8619C0.390357 4.6143 0.463676 2.54722 1.84008 1.39615C3.00621 0.422795 4.79809 0.567561 5.92786 1.71175L5.92873 1.71263L6.46739 2.25637L7.0002 2.79421L7.53301 2.25637L8.07168 1.71263L8.07202 1.71228Z" stroke="#FBFBFB" stroke-width="1.5"/>
</svg>
