<svg width="508" height="122" viewBox="0 0 508 122" fill="none" xmlns="http://www.w3.org/2000/svg">
<path d="M67.9666 34.3107V90.4982C67.9666 100.457 65.3207 108.102 60.0291 113.436C54.4457 119.061 46.2374 121.873 35.4041 121.873C21.8207 121.873 10.7374 118.665 2.15405 112.248L9.34155 100.498C16.1749 105.957 24.4666 108.686 34.2166 108.686C45.7999 108.686 51.5916 103.269 51.5916 92.4357V86.9357C46.6749 92.3107 40.4041 94.9982 32.7791 94.9982C24.3207 94.9982 17.0707 92.2898 11.0291 86.8732C4.27905 80.8732 0.904053 73.2273 0.904053 63.9357C0.904053 57.4357 2.79989 51.4773 6.59155 46.0607C10.2166 40.8523 14.9666 37.0398 20.8416 34.6232C24.7166 33.0398 28.7374 32.2482 32.9041 32.2482C40.7374 32.2482 47.2582 34.9773 52.4666 40.4357L54.4041 34.3107H67.9666ZM51.5916 56.3107C47.8416 49.144 42.2374 45.5607 34.7791 45.5607C29.3207 45.5607 25.0707 47.3732 22.0291 50.9982C19.1957 54.3315 17.7791 58.6232 17.7791 63.8732C17.7791 69.0815 19.1957 73.3107 22.0291 76.5607C25.0707 80.0607 29.2791 81.8107 34.6541 81.8107C42.6124 81.8107 48.2582 78.1023 51.5916 70.6857V56.3107ZM104.529 56.9357H105.029C110.571 40.394 119.092 32.1232 130.592 32.1232C133.925 32.1232 137.133 32.769 140.217 34.0607L135.904 49.8107C133.571 49.019 131.175 48.6232 128.717 48.6232C122.342 48.6232 117.029 51.8315 112.779 58.2482C109.946 62.4565 107.967 67.8732 106.842 74.4982V109.811H90.2166V34.3107H105.967L104.529 56.9357ZM221.842 75.3107H165.529C165.821 81.9357 167.904 87.3107 171.779 91.4357C176.446 96.3107 182.383 98.7482 189.592 98.7482C198.092 98.7482 205.612 94.769 212.154 86.8107L222.154 96.9357C213.946 107.269 202.571 112.436 188.029 112.436C176.112 112.436 166.508 108.623 159.217 100.998C152.258 93.6648 148.779 84.2065 148.779 72.6232C148.779 63.2065 151.05 55.019 155.592 48.0607C159.633 41.894 165.029 37.4148 171.779 34.6232C176.404 32.7065 181.342 31.7482 186.592 31.7482C194.967 31.7482 202.112 34.0815 208.029 38.7482C214.154 43.4982 218.279 50.144 220.404 58.6857C221.362 62.5607 221.842 66.644 221.842 70.9357V75.3107ZM205.092 63.1232C204.758 58.8315 203.633 55.2482 201.717 52.3732C198.092 47.0815 192.883 44.4357 186.092 44.4357C180.008 44.4357 175.008 46.894 171.092 51.8107C168.675 54.8523 167.175 58.6232 166.592 63.1232H205.092ZM310.217 75.3107H253.904C254.196 81.9357 256.279 87.3107 260.154 91.4357C264.821 96.3107 270.758 98.7482 277.967 98.7482C286.467 98.7482 293.987 94.769 300.529 86.8107L310.529 96.9357C302.321 107.269 290.946 112.436 276.404 112.436C264.487 112.436 254.883 108.623 247.592 100.998C240.633 93.6648 237.154 84.2065 237.154 72.6232C237.154 63.2065 239.425 55.019 243.967 48.0607C248.008 41.894 253.404 37.4148 260.154 34.6232C264.779 32.7065 269.717 31.7482 274.967 31.7482C283.342 31.7482 290.487 34.0815 296.404 38.7482C302.529 43.4982 306.654 50.144 308.779 58.6857C309.737 62.5607 310.217 66.644 310.217 70.9357V75.3107ZM293.467 63.1232C293.133 58.8315 292.008 55.2482 290.092 52.3732C286.467 47.0815 281.258 44.4357 274.467 44.4357C268.383 44.4357 263.383 46.894 259.467 51.8107C257.05 54.8523 255.55 58.6232 254.967 63.1232H293.467ZM353.092 10.7482V34.3107H376.654V46.1857H353.092V87.2482C353.092 91.2898 353.571 94.0815 354.529 95.6232C355.821 97.7482 357.967 98.8107 360.967 98.8107C364.675 98.8107 368.487 97.3523 372.404 94.4357L376.404 106.061C370.321 109.936 363.904 111.873 357.154 111.873C350.154 111.873 344.862 109.79 341.279 105.623C338.321 102.165 336.842 97.1648 336.842 90.6232V46.1857H319.967V34.3107H336.842V18.1857L353.092 10.7482ZM395.154 0.373169H412.029V93.8107C412.029 95.769 413.008 96.7482 414.967 96.7482H425.342L423.529 109.811H409.342C406.05 109.811 403.321 109.207 401.154 107.998C397.154 105.832 395.154 101.957 395.154 96.3732V0.373169ZM430.779 34.3107H449.592L463.404 64.6232C464.821 67.7065 466.571 72.8315 468.654 79.9982H469.154C471.987 72.4565 474.05 67.3315 475.342 64.6232L489.779 34.3107H507.967L473.279 102.311C469.362 109.936 465.279 115.123 461.029 117.873C456.862 120.54 451.342 121.873 444.467 121.873H439.342L435.029 107.686H441.404C444.571 107.686 447.196 107.311 449.279 106.561C453.237 105.227 456.508 101.998 459.092 96.8732L460.592 93.8107L430.779 34.3107Z" fill="#3A5A40"/>
</svg>
