<svg width="17" height="17" viewBox="0 0 17 17" fill="none" xmlns="http://www.w3.org/2000/svg">
<path d="M13.2825 11.4247L13.2826 11.4247L16.5923 14.6928C16.5924 14.6929 16.5925 14.6931 16.5927 14.6932C16.8031 14.9037 16.803 15.2422 16.5899 15.4526L15.6503 16.3807L15.6493 16.3816C15.4386 16.5919 15.0913 16.5933 14.876 16.3807L14.876 16.3806L11.5653 13.1116C11.4638 13.0113 11.4072 12.8755 11.4072 12.732V12.1975V11.6886L11.0044 11.9996C9.87494 12.8718 8.45382 13.3903 6.90691 13.3903C3.22662 13.3903 0.25 10.4466 0.25 6.82017C0.25 3.1937 3.22695 0.25 6.90691 0.25C10.5869 0.25 13.5635 3.19368 13.5635 6.82017C13.5635 8.34557 13.0393 9.74698 12.1565 10.8621L11.8358 11.2673H12.3526H12.8938C13.0419 11.2673 13.1809 11.3243 13.2825 11.4247ZM6.86302 9.69886L6.86186 9.69752C6.55764 9.3431 6.01105 8.6805 5.5419 7.97567C5.30724 7.62312 5.09537 7.26508 4.943 6.93338C4.78832 6.59666 4.70586 6.31009 4.70586 6.09381C4.70586 4.89758 5.68864 3.92275 6.90758 3.92275C8.12652 3.92275 9.1093 4.89758 9.1093 6.09381C9.1093 6.31018 9.02683 6.59679 8.87215 6.93352C8.71978 7.26523 8.50792 7.62326 8.27326 7.97579C7.80411 8.68057 7.25753 9.34309 6.95329 9.69751L6.95215 9.69886C6.94704 9.7049 6.94045 9.70998 6.93271 9.71356C6.92496 9.71713 6.91637 9.71905 6.90758 9.71905C6.89878 9.71905 6.89019 9.71713 6.88245 9.71356C6.8747 9.70998 6.86812 9.7049 6.86302 9.69886ZM1.87566 6.82017C1.87566 9.57291 4.13097 11.7916 6.90691 11.7916C9.68676 11.7916 11.9382 9.56905 11.9382 6.82017C11.9382 4.06743 9.68286 1.84871 6.90691 1.84871C4.12707 1.84871 1.87566 4.07128 1.87566 6.82017ZM5.8607 6.0338C5.8607 6.60923 6.33211 7.07082 6.90758 7.07082C7.48265 7.07082 7.95445 6.6093 7.95445 6.0338C7.95445 5.45791 7.48258 4.99679 6.90758 4.99679C6.33258 4.99679 5.8607 5.45791 5.8607 6.0338Z" stroke="#31572C" stroke-width="0.5"/>
</svg>
