<svg width="14" height="14" viewBox="0 0 14 14" fill="none" xmlns="http://www.w3.org/2000/svg">
<path d="M10.25 3.5C10.25 4.92805 8.89237 6.25 7 6.25C5.10763 6.25 3.75 4.92805 3.75 3.5C3.75 2.07195 5.10763 0.75 7 0.75C8.89237 0.75 10.25 2.07195 10.25 3.5ZM7 9.0625C7.85656 9.0625 8.67457 8.90516 9.41879 8.625H9.8C11.8017 8.625 13.25 10.0262 13.25 11.55V12.6875C13.25 12.907 13.0111 13.25 12.5 13.25H1.5C0.988884 13.25 0.75 12.907 0.75 12.6875V11.55C0.75 10.0262 2.19826 8.625 4.2 8.625H4.5817C5.32736 8.90484 6.14255 9.0625 7 9.0625Z" fill="#31572C" stroke="white" stroke-width="1.5"/>
</svg>
