<svg width="130" height="43" viewBox="0 0 144 43" fill="none" xmlns="http://www.w3.org/2000/svg">
<path d="M26.589 17.065L24.4301 15.016L25.1342 14.3477C25.1527 14.3301 25.1907 14.3086 25.2508 14.3086C25.3103 14.3086 25.3507 14.3298 25.3722 14.3499C25.3724 14.35 25.3726 14.3502 25.3728 14.3504L27.4066 16.2808L27.4096 16.2836C27.41 16.284 27.4104 16.2844 27.4108 16.2848C27.4096 16.286 27.4082 16.2874 27.4067 16.2889L26.589 17.065ZM23.0951 19.3357L23.6476 19.8601L17.675 25.529V24.9444H17.3403C17.3866 24.9077 17.4317 24.8686 17.4753 24.8272L22.6942 19.8737C22.8631 19.7134 22.9967 19.531 23.0951 19.3357Z" stroke="#31572C" stroke-width="3"/>
<rect x="0.5" y="5.07471" width="143" height="31.8824" rx="15.9412" stroke="#31572C"/>
<path d="M41.7351 18.1597V21.5288H43.6394C44.7526 21.5288 45.4045 20.8916 45.4045 19.8442C45.4045 18.8188 44.716 18.1597 43.6174 18.1597H41.7351ZM41.7351 23.1328V27H39.5232V16.4312H43.8518C46.2834 16.4312 47.675 17.7129 47.675 19.8003C47.675 21.1553 46.9719 22.3271 45.7561 22.8032L47.9826 27H45.4777L43.5075 23.1328H41.7351ZM52.3991 20.562C51.4616 20.562 50.7878 21.2725 50.7146 22.2539H54.0471C54.0031 21.2505 53.3513 20.562 52.3991 20.562ZM54.0764 24.5977H56.0393C55.8049 26.1357 54.3986 27.1685 52.4577 27.1685C50.0407 27.1685 48.5905 25.623 48.5905 23.1108C48.5905 20.606 50.0554 18.98 52.3772 18.98C54.6623 18.98 56.1052 20.5254 56.1052 22.9131V23.5649H50.6926V23.6968C50.6926 24.8174 51.403 25.5864 52.4943 25.5864C53.278 25.5864 53.8786 25.1982 54.0764 24.5977ZM60.1262 27.1245C58.1633 27.1245 56.9255 25.5718 56.9255 23.0596C56.9255 20.5693 58.1706 19.0239 60.1408 19.0239C61.2761 19.0239 62.155 19.6245 62.5358 20.4961H62.5798V16.4312H64.7185V27H62.6091V25.6523H62.5725C62.1916 26.5166 61.2834 27.1245 60.1262 27.1245ZM60.8513 20.7378C59.7746 20.7378 59.1154 21.6387 59.1154 23.0742C59.1154 24.5171 59.7746 25.4033 60.8513 25.4033C61.9133 25.4033 62.5944 24.5098 62.5944 23.0742C62.5944 21.646 61.9133 20.7378 60.8513 20.7378ZM66.1833 27V19.1484H68.322V27H66.1833ZM67.2526 18.2842C66.6081 18.2842 66.1101 17.7935 66.1101 17.1782C66.1101 16.5557 66.6081 16.0723 67.2526 16.0723C67.8972 16.0723 68.3952 16.5557 68.3952 17.1782C68.3952 17.7935 67.8972 18.2842 67.2526 18.2842ZM73.3757 25.3301C74.445 25.3301 75.1262 24.4805 75.1262 23.0596C75.1262 21.646 74.445 20.7378 73.3757 20.7378C72.321 20.7378 71.6545 21.6313 71.6545 23.0596C71.6545 24.4951 72.3137 25.3301 73.3757 25.3301ZM73.3391 29.959C71.2736 29.959 69.8747 28.9556 69.7063 27.5566H71.801C71.9694 28.0986 72.5847 28.4722 73.3977 28.4722C74.5036 28.4722 75.1189 27.8569 75.1189 26.9487V25.5718H75.0749C74.7087 26.4067 73.7858 26.978 72.6506 26.978C70.7316 26.978 69.4646 25.4985 69.4646 23.0449C69.4646 20.5547 70.695 19.0239 72.6872 19.0239C73.8151 19.0239 74.7014 19.6172 75.1115 20.5181H75.1482V19.1484H77.2575V26.8901C77.2575 28.7651 75.6901 29.959 73.3391 29.959ZM82.1794 20.562C81.2419 20.562 80.5681 21.2725 80.4948 22.2539H83.8274C83.7834 21.2505 83.1315 20.562 82.1794 20.562ZM83.8566 24.5977H85.8195C85.5852 26.1357 84.1789 27.1685 82.238 27.1685C79.821 27.1685 78.3708 25.623 78.3708 23.1108C78.3708 20.606 79.8357 18.98 82.1574 18.98C84.4426 18.98 85.8855 20.5254 85.8855 22.9131V23.5649H80.4729V23.6968C80.4729 24.8174 81.1833 25.5864 82.2746 25.5864C83.0583 25.5864 83.6589 25.1982 83.8566 24.5977ZM86.9914 27V19.1484H89.0568V20.562H89.1008C89.3791 19.5659 90.0456 19.0239 90.9685 19.0239C91.2175 19.0239 91.4299 19.0605 91.5764 19.1045V20.9868C91.4006 20.9136 91.1076 20.8623 90.8 20.8623C89.7453 20.8623 89.1301 21.5068 89.1301 22.6128V27H86.9914ZM100.014 19.0239C102.006 19.0239 103.229 20.54 103.229 23.0742C103.229 25.6011 102.013 27.1245 100.05 27.1245C98.9079 27.1245 98.029 26.5679 97.6115 25.6816H97.5676V29.5635H95.4289V19.1484H97.5383V20.5181H97.5822C98.007 19.5952 98.8786 19.0239 100.014 19.0239ZM99.2961 25.4033C100.365 25.4033 101.039 24.5024 101.039 23.0742C101.039 21.6533 100.365 20.7378 99.2961 20.7378C98.2487 20.7378 97.5603 21.668 97.5603 23.0742C97.5603 24.4951 98.2487 25.4033 99.2961 25.4033ZM104.335 27V19.1484H106.401V20.562H106.445C106.723 19.5659 107.389 19.0239 108.312 19.0239C108.561 19.0239 108.774 19.0605 108.92 19.1045V20.9868C108.744 20.9136 108.451 20.8623 108.144 20.8623C107.089 20.8623 106.474 21.5068 106.474 22.6128V27H104.335ZM113.139 27.1685C110.766 27.1685 109.25 25.645 109.25 23.0669C109.25 20.5254 110.788 18.98 113.139 18.98C115.49 18.98 117.028 20.5181 117.028 23.0669C117.028 25.6523 115.512 27.1685 113.139 27.1685ZM113.139 25.5352C114.186 25.5352 114.853 24.6489 114.853 23.0742C114.853 21.5142 114.179 20.6133 113.139 20.6133C112.099 20.6133 111.418 21.5142 111.418 23.0742C111.418 24.6489 112.084 25.5352 113.139 25.5352ZM118.705 27V20.7598H117.636V19.1851H118.705V18.5918C118.705 17.0537 119.43 16.3359 121.291 16.3359C121.686 16.3359 122.133 16.3799 122.382 16.4312V17.8447C122.228 17.8154 122.016 17.8008 121.803 17.8008C121.1 17.8008 120.793 18.1084 120.793 18.665V19.1851H122.353V20.7598H120.844V27H118.705ZM123.517 27V19.1484H125.656V27H123.517ZM124.587 18.2842C123.942 18.2842 123.444 17.7935 123.444 17.1782C123.444 16.5557 123.942 16.0723 124.587 16.0723C125.231 16.0723 125.729 16.5557 125.729 17.1782C125.729 17.7935 125.231 18.2842 124.587 18.2842ZM127.135 27V16.4312H129.274V27H127.135Z" fill="#31572C"/>
</svg>

