<svg width="30" height="30" viewBox="0 0 30 30" fill="none" xmlns="http://www.w3.org/2000/svg">
<path d="M21.3801 17.6798L21.3801 17.6798C21.3249 17.7385 21.2878 17.7465 21.2758 17.7486C21.2584 17.7516 21.2294 17.7511 21.1905 17.7324C21.1193 17.6982 21 17.5898 21 17.3429V13.1263V12.1187L19.9925 12.1263C18.0762 12.1408 16.379 12.2783 14.9484 12.6245C13.5163 12.9711 12.2839 13.5429 11.3731 14.4755C9.56376 16.3283 9.3844 19.1876 10.3527 23.0416C8.68881 21.3955 7.25 18.5786 7.25 15.7816C7.25 11.8528 8.64718 9.68616 10.777 8.41858C13.0163 7.08586 16.2194 6.6502 20.0062 6.62657L21 6.62037V5.62659V1.40697C21 1.15965 21.1194 1.05164 21.1904 1.01761C21.2292 0.998964 21.2584 0.99838 21.276 1.00141C21.2882 1.00351 21.3252 1.01165 21.3801 1.06998L21.3801 1.07003L28.8803 9.03804C28.8803 9.03805 28.8803 9.03806 28.8803 9.03807C29.0399 9.20766 29.04 9.54222 28.8803 9.71194C28.8803 9.71196 28.8803 9.71198 28.8802 9.71199L21.3801 17.6798ZM10.4555 23.4506C10.4554 23.4508 10.4554 23.4503 10.4556 23.4492L10.4555 23.4506ZM20 27.25H21V26.25V22.5553C21.4487 22.5815 21.8977 22.5376 22.3333 22.4257V27.1875C22.3333 28.3025 21.5543 29 20.8333 29H2.5C1.77903 29 1 28.3025 1 27.1875V6.56251C1 5.44749 1.77903 4.75001 2.5 4.75001H7.75136C7.04946 5.24318 6.39019 5.82151 5.79166 6.50001H3.33333H2.33333V7.50001V26.25V27.25H3.33333H20Z" stroke="#31572C" stroke-width="2"/>
</svg>
