<svg width="25" height="18" viewBox="0 0 25 18" fill="none" xmlns="http://www.w3.org/2000/svg">
<path d="M11.375 4.375C11.375 6.51683 9.64183 8.25 7.5 8.25C5.35817 8.25 3.625 6.51683 3.625 4.375C3.625 2.23317 5.35817 0.5 7.5 0.5C9.64183 0.5 11.375 2.23317 11.375 4.375ZM7.5 11.125C8.5021 11.125 9.44179 10.8901 10.2876 10.5H10.5C12.7082 10.5 14.5 12.2918 14.5 14.5V15.625C14.5 16.384 13.884 17 13.125 17H1.875C1.11599 17 0.5 16.384 0.5 15.625V14.5C0.5 12.2918 2.29177 10.5 4.5 10.5H4.71283C5.5611 10.8898 6.49718 11.125 7.5 11.125ZM22 5C22 6.79417 20.5442 8.25 18.75 8.25C16.9558 8.25 15.5 6.79417 15.5 5C15.5 3.20583 16.9558 1.75 18.75 1.75C20.5442 1.75 22 3.20583 22 5ZM18.75 10.8125C19.3973 10.8125 20.0007 10.6857 20.559 10.5H20.625C22.7668 10.5 24.5 12.2332 24.5 14.375C24.5 15.134 23.884 15.75 23.125 15.75H16.75V14.5C16.75 13.096 16.2741 11.8095 15.492 10.7708C15.9245 10.5981 16.3879 10.5 16.875 10.5H16.941C17.4993 10.6857 18.1027 10.8125 18.75 10.8125Z" stroke="#31572C"/>
</svg>
